<?xml version="1.0" encoding="utf-8"?>
<!-- Generator: Adobe Illustrator 16.0.0, SVG Export Plug-In . SVG Version: 6.00 Build 0)  -->
<!DOCTYPE svg PUBLIC "-//W3C//DTD SVG 1.1//EN" "http://www.w3.org/Graphics/SVG/1.1/DTD/svg11.dtd">
<svg version="1.1" id="Camada_1" xmlns="http://www.w3.org/2000/svg" xmlns:xlink="http://www.w3.org/1999/xlink" x="0px" y="0px"
	 width="566.929px" height="283.465px" viewBox="0 0 566.929 283.465" enable-background="new 0 0 566.929 283.465"
	 xml:space="preserve">
<g>
	
		<path fill-rule="evenodd" clip-rule="evenodd" fill="#FFFFFF" stroke="#FFFFFF" stroke-width="9.9213" stroke-linejoin="round" stroke-miterlimit="22.9256" d="
		M139.805,112.734c0,3.432,0.383,5.94,1.135,7.5c0.764,1.56,1.959,2.346,3.595,2.346c1.685,0,2.913-0.786,3.679-2.346
		c0.775-1.56,1.157-4.068,1.157-7.5V77.896c0-3.418-0.382-5.899-1.134-7.459c-0.765-1.546-1.994-2.318-3.702-2.318
		c-1.659,0-2.866,0.772-3.606,2.318c-0.752,1.56-1.123,4.041-1.123,7.459V112.734L139.805,112.734z M117.594,95.295
		c0-3.797,0.645-7.526,1.946-11.188c1.29-3.661,3.057-6.795,5.302-9.398c2.496-2.889,5.41-5.085,8.754-6.59
		c3.355-1.506,6.998-2.266,10.938-2.266c7.81,0,14.282,2.808,19.382,8.422c5.11,5.614,7.666,12.625,7.666,21.02
		c0,8.449-2.556,15.486-7.666,21.115c-5.1,5.628-11.572,8.436-19.382,8.436c-3.427,0-6.651-0.584-9.673-1.75
		s-5.708-2.861-8.061-5.086c-2.854-2.645-5.1-6.008-6.735-10.062C118.418,103.879,117.594,99.662,117.594,95.295L117.594,95.295z
		 M137.178,61.447l9.769-11.799c1.206-1.438,2.209-2.414,3.009-2.943c0.789-0.529,1.589-0.8,2.412-0.8c1.1,0,2.02,0.421,2.759,1.247
		c0.753,0.842,1.122,1.858,1.122,3.053c0,0.949-0.274,1.789-0.836,2.521c-0.561,0.719-1.504,1.465-2.842,2.197l-11.367,6.523
		H137.178L137.178,61.447z M203.993,123.299l16.922-47.355c0.907-2.496,1.839-4.271,2.782-5.33c0.943-1.057,2.065-1.586,3.379-1.586
		h0.419v-2.184h-13.674v2.184c1.696,0.081,2.95,0.447,3.737,1.111c0.789,0.666,1.194,1.668,1.194,3.024
		c0,0.394-0.048,0.827-0.144,1.302c-0.094,0.488-0.238,1.004-0.418,1.561l-10.461,29.711l-12.562-36.709h6.89v-2.184h-31.586v2.184
		h4.025l18.473,54.271H203.993L203.993,123.299z M274.439,66.844v19.5h-2.137c-1.303-6.115-3.296-10.536-5.959-13.248
		c-2.676-2.713-6.377-4.068-11.118-4.068h-2.866v24.314h0.215c2.891,0,5.111-0.908,6.652-2.738c1.54-1.831,2.483-4.652,2.83-8.463
		h2.066v24.709h-2.066c-0.37-3.811-1.326-6.631-2.866-8.463c-1.54-1.83-3.75-2.738-6.616-2.738h-0.215v25.305h3.881
		c4.396,0,7.965-1.573,10.748-4.733c2.771-3.146,4.872-8.015,6.293-14.578h2.174v21.657h-49.224v-2.346h5.422V69.027h-5.422v-2.184
		H274.439L274.439,66.844z M280.377,123.299v-2.346h6.329V69.027h-6.329v-2.184h32.804v2.184h-6.293v51.926h6.293v2.346H280.377
		L280.377,123.299z M318.915,124.846h-1.647c0.119-2.307,0.19-4.029,0.227-5.168s0.06-2.184,0.06-3.133
		c0-1.22-0.048-2.848-0.144-4.882c-0.096-2.048-0.203-4.38-0.346-6.997h1.993c2.222,5.506,5.064,9.832,8.551,12.992
		c3.487,3.145,7.082,4.719,10.796,4.719c2.399,0,4.227-0.516,5.492-1.532c1.254-1.018,1.888-2.509,1.888-4.462
		c0-2.726-2.974-5.602-8.921-8.625c-0.562-0.285-0.991-0.516-1.302-0.664c-7.021-3.662-11.811-7.119-14.378-10.375
		c-2.567-3.254-3.845-7.228-3.845-11.92c0-5.695,1.588-10.266,4.753-13.737c3.177-3.472,7.344-5.208,12.491-5.208
		c1.874,0,3.666,0.271,5.397,0.814c1.72,0.542,3.486,1.383,5.277,2.521l7.847-3.336h1.433c0,1.329-0.024,2.727-0.072,4.217
		c-0.023,0.395-0.035,0.639-0.035,0.747c0,2.414,0.06,4.72,0.179,6.942c0.119,2.211,0.275,4.504,0.49,6.89h-1.994
		c-2.4-5.222-5.135-9.249-8.192-12.083s-6.186-4.244-9.374-4.244c-2.126,0-3.798,0.515-5.017,1.546
		c-1.205,1.03-1.814,2.44-1.814,4.218c0,2.698,3.511,5.898,10.533,9.615c1.122,0.582,1.981,1.029,2.591,1.342
		c6.114,3.309,10.401,6.563,12.861,9.75c2.46,3.201,3.69,6.943,3.69,11.27c0,5.642-1.685,10.171-5.04,13.615
		c-3.355,3.445-7.81,5.168-13.362,5.168c-2.221,0-4.335-0.285-6.341-0.855c-2.007-0.569-4.216-1.531-6.64-2.889L318.915,124.846z"/>
	
		<path fill-rule="evenodd" clip-rule="evenodd" fill="#FFFFFF" stroke="#FFFFFF" stroke-width="9.9213" stroke-linejoin="round" stroke-miterlimit="22.9256" d="
		M129.828,187.826v-2.262h6.402v-50.047h-6.402v-2.104h33.187v2.104h-6.366v50.047h6.366v2.262H129.828L129.828,187.826z
		 M174.564,179.514c0,2.482,0.459,4.104,1.365,4.889c0.906,0.77,2.779,1.162,5.606,1.162v2.262h-16.177v-2.262
		c2.598,0,4.337-0.393,5.219-1.189c0.882-0.783,1.329-2.404,1.329-4.861v-43.996h-6.271v-2.104h26.978l7.261,22.82l7.321-22.82
		h27.11v2.104h-5.738v50.047h5.738v2.262h-32.027v-2.262h5.871v-46.451l-15.608,48.713h-2.899l-15.078-48.557V179.514
		L174.564,179.514z M260.39,177.645c0,3.307,0.388,5.725,1.147,7.229c0.773,1.502,1.982,2.26,3.637,2.26
		c1.703,0,2.948-0.758,3.723-2.26c0.783-1.504,1.17-3.922,1.17-7.229v-33.578c0-3.295-0.387-5.686-1.146-7.189
		c-0.773-1.49-2.018-2.234-3.746-2.234c-1.68,0-2.899,0.744-3.648,2.234c-0.761,1.504-1.136,3.895-1.136,7.189V177.645
		L260.39,177.645z M237.918,160.836c0-3.66,0.652-7.256,1.971-10.783c1.304-3.529,3.092-6.549,5.363-9.059
		c2.525-2.783,5.473-4.901,8.855-6.352c3.395-1.451,7.08-2.184,11.066-2.184c7.901,0,14.449,2.706,19.609,8.117
		c5.17,5.412,7.755,12.168,7.755,20.26c0,8.143-2.585,14.926-7.755,20.35c-5.16,5.424-11.708,8.131-19.609,8.131
		c-3.467,0-6.729-0.563-9.785-1.686c-3.057-1.125-5.775-2.758-8.154-4.902c-2.889-2.549-5.16-5.791-6.814-9.699
		C238.752,169.109,237.918,165.045,237.918,160.836L237.918,160.836z M304.85,179.592c0,2.482,0.447,4.104,1.341,4.889
		c0.894,0.771,2.766,1.162,5.593,1.162v2.184h-16.671v-2.184h0.531c2.598,0,4.324-0.391,5.206-1.162
		c0.87-0.785,1.306-2.406,1.306-4.889v-44.074h-7.043v-2.104h27.314l19.79,29.564v-21.33c0-2.51-0.447-4.157-1.329-4.941
		c-0.882-0.797-2.634-1.189-5.256-1.189h-0.423v-2.104h16.673v2.104h-0.423c-2.598,0-4.337,0.393-5.22,1.189
		c-0.881,0.784-1.329,2.432-1.329,4.941v46.178h-11.078l-28.982-43.459V179.592L304.85,179.592z M403.492,133.414v18.795h-2.162
		c-1.316-5.895-3.335-10.156-6.029-12.77c-2.706-2.615-6.451-3.922-11.247-3.922h-2.899v23.436h0.217
		c2.924,0,5.172-0.875,6.729-2.641c1.559-1.764,2.514-4.482,2.864-8.154h2.09v23.813h-2.09c-0.375-3.672-1.342-6.391-2.9-8.154
		c-1.558-1.766-3.793-2.641-6.693-2.641h-0.217v24.389h3.927c4.445,0,8.058-1.516,10.872-4.561
		c2.804-3.033,4.931-7.725,6.367-14.051h2.199v20.873h-49.799v-2.262h5.484v-50.047h-5.484v-2.104H403.492L403.492,133.414z
		 M453.509,187.826h-34.335v-2.262h6.656v-50.047c-3.237,0.236-6.089,1.83-8.565,4.785c-2.477,2.967-4.276,6.926-5.412,11.906
		h-1.595v-18.795h52.167v18.795h-1.595c-1.136-4.98-2.936-8.939-5.412-11.906c-2.478-2.955-5.328-4.549-8.565-4.785v50.047h6.656
		V187.826L453.509,187.826z M507.729,187.826h-34.334v-2.262h6.656v-50.047c-3.238,0.236-6.089,1.83-8.565,4.785
		c-2.477,2.967-4.276,6.926-5.412,11.906h-1.596v-18.795h52.168v18.795h-1.596c-1.135-4.98-2.936-8.939-5.411-11.906
		c-2.478-2.955-5.328-4.549-8.566-4.785v50.047h6.656V187.826L507.729,187.826z M519.616,187.826v-2.262h6.404v-50.047h-6.404
		v-2.104h33.188v2.104h-6.366v50.047h6.366v2.262H519.616z"/>
	
		<path fill-rule="evenodd" clip-rule="evenodd" fill="#FFFFFF" stroke="#FFFFFF" stroke-width="9.9213" stroke-linejoin="round" stroke-miterlimit="22.9256" d="
		M37.731,122.427c0,2.962,0.562,4.894,1.667,5.829c1.107,0.92,3.396,1.387,6.85,1.387v2.696H26.483v-2.696
		c3.174,0,5.3-0.467,6.377-1.418c1.077-0.936,1.624-2.867,1.624-5.798v-52.46h-7.661v-2.51h32.96l8.871,27.212L77.6,67.457h33.122
		v2.51h-7.011v59.676h7.011v2.696h-39.13v-2.696h7.174v-55.39l-19.071,58.086h-3.542L37.731,74.439V122.427z"/>
	
		<path fill-rule="evenodd" clip-rule="evenodd" fill="#FFFFFF" stroke="#FFFFFF" stroke-width="9.9213" stroke-linejoin="round" stroke-miterlimit="22.9256" d="
		M61.824,192.723h-2.718c0.196-2.797,0.315-4.889,0.374-6.271s0.098-2.65,0.098-3.801c0-1.482-0.078-3.457-0.236-5.926
		c-0.156-2.486-0.334-5.318-0.57-8.494h3.29c3.663,6.684,8.351,11.934,14.104,15.77c5.751,3.818,11.681,5.727,17.807,5.727
		c3.959,0,6.972-0.625,9.061-1.859c2.069-1.234,3.112-3.045,3.112-5.416c0-3.309-4.904-6.797-14.714-10.469
		c-0.927-0.344-1.636-0.625-2.147-0.805c-11.582-4.445-19.48-8.643-23.716-12.594c-4.235-3.949-6.343-8.771-6.343-14.467
		c0-6.914,2.619-12.461,7.84-16.675c5.239-4.214,12.114-6.321,20.604-6.321c3.094,0,6.047,0.33,8.904,0.988
		c2.836,0.658,5.752,1.68,8.705,3.063l12.942-4.051h2.363c0,1.614-0.039,3.309-0.118,5.119c-0.039,0.479-0.059,0.773-0.059,0.906
		c0,2.93,0.098,5.728,0.295,8.428c0.197,2.683,0.453,5.465,0.809,8.361h-3.29c-3.96-6.337-8.47-11.226-13.513-14.666
		c-5.043-3.439-10.203-5.152-15.463-5.152c-3.507,0-6.264,0.626-8.273,1.877c-1.989,1.251-2.994,2.963-2.994,5.119
		c0,3.275,5.792,7.16,17.373,11.67c1.852,0.709,3.27,1.25,4.275,1.629c10.085,4.018,17.156,7.967,21.215,11.836
		c4.058,3.885,6.086,8.428,6.086,13.678c0,6.848-2.777,12.346-8.313,16.525c-5.535,4.182-12.883,6.271-22.041,6.271
		c-3.664,0-7.151-0.346-10.461-1.037c-3.309-0.691-6.953-1.859-10.951-3.506L61.824,192.723z"/>
</g>
<g>
	<path fill-rule="evenodd" clip-rule="evenodd" fill="#DE181E" d="M139.805,112.734c0,3.432,0.383,5.94,1.135,7.5
		c0.764,1.56,1.959,2.346,3.595,2.346c1.685,0,2.913-0.786,3.679-2.346c0.775-1.56,1.157-4.068,1.157-7.5V77.896
		c0-3.418-0.382-5.899-1.134-7.459c-0.765-1.546-1.994-2.318-3.702-2.318c-1.659,0-2.866,0.772-3.606,2.318
		c-0.752,1.56-1.123,4.041-1.123,7.459V112.734L139.805,112.734z M117.594,95.295c0-3.797,0.645-7.526,1.946-11.188
		c1.29-3.661,3.057-6.795,5.302-9.398c2.496-2.889,5.41-5.085,8.754-6.59c3.355-1.506,6.998-2.266,10.938-2.266
		c7.81,0,14.282,2.808,19.382,8.422c5.11,5.614,7.666,12.625,7.666,21.02c0,8.449-2.556,15.486-7.666,21.115
		c-5.1,5.628-11.572,8.436-19.382,8.436c-3.427,0-6.651-0.584-9.673-1.75s-5.708-2.861-8.061-5.086
		c-2.854-2.645-5.1-6.008-6.735-10.062C118.418,103.879,117.594,99.662,117.594,95.295L117.594,95.295z M137.178,61.447
		l9.769-11.799c1.206-1.438,2.209-2.414,3.009-2.943c0.789-0.529,1.589-0.8,2.412-0.8c1.1,0,2.02,0.421,2.759,1.247
		c0.753,0.842,1.122,1.858,1.122,3.053c0,0.949-0.274,1.789-0.836,2.521c-0.561,0.719-1.504,1.465-2.842,2.197l-11.367,6.523
		H137.178L137.178,61.447z M203.993,123.299l16.922-47.355c0.907-2.496,1.839-4.271,2.782-5.33c0.943-1.057,2.065-1.586,3.379-1.586
		h0.419v-2.184h-13.674v2.184c1.696,0.081,2.95,0.447,3.737,1.111c0.789,0.666,1.194,1.668,1.194,3.024
		c0,0.394-0.048,0.827-0.144,1.302c-0.094,0.488-0.238,1.004-0.418,1.561l-10.461,29.711l-12.562-36.709h6.89v-2.184h-31.586v2.184
		h4.025l18.473,54.271H203.993L203.993,123.299z M274.439,66.844v19.5h-2.137c-1.303-6.115-3.296-10.536-5.959-13.248
		c-2.676-2.713-6.377-4.068-11.118-4.068h-2.866v24.314h0.215c2.891,0,5.111-0.908,6.652-2.738c1.54-1.831,2.483-4.652,2.83-8.463
		h2.066v24.709h-2.066c-0.37-3.811-1.326-6.631-2.866-8.463c-1.54-1.83-3.75-2.738-6.616-2.738h-0.215v25.305h3.881
		c4.396,0,7.965-1.573,10.748-4.733c2.771-3.146,4.872-8.015,6.293-14.578h2.174v21.657h-49.224v-2.346h5.422V69.027h-5.422v-2.184
		H274.439L274.439,66.844z M280.377,123.299v-2.346h6.329V69.027h-6.329v-2.184h32.804v2.184h-6.293v51.926h6.293v2.346H280.377
		L280.377,123.299z M318.915,124.846h-1.647c0.119-2.307,0.19-4.029,0.227-5.168s0.06-2.184,0.06-3.133
		c0-1.22-0.048-2.848-0.144-4.882c-0.096-2.048-0.203-4.38-0.346-6.997h1.993c2.222,5.506,5.064,9.832,8.551,12.992
		c3.487,3.145,7.082,4.719,10.796,4.719c2.399,0,4.227-0.516,5.492-1.532c1.254-1.018,1.888-2.509,1.888-4.462
		c0-2.726-2.974-5.602-8.921-8.625c-0.562-0.285-0.991-0.516-1.302-0.664c-7.021-3.662-11.811-7.119-14.378-10.375
		c-2.567-3.254-3.845-7.228-3.845-11.92c0-5.695,1.588-10.266,4.753-13.737c3.177-3.472,7.344-5.208,12.491-5.208
		c1.874,0,3.666,0.271,5.397,0.814c1.72,0.542,3.486,1.383,5.277,2.521l7.847-3.336h1.433c0,1.329-0.024,2.727-0.072,4.217
		c-0.023,0.395-0.035,0.639-0.035,0.747c0,2.414,0.06,4.72,0.179,6.942c0.119,2.211,0.275,4.504,0.49,6.89h-1.994
		c-2.4-5.222-5.135-9.249-8.192-12.083s-6.186-4.244-9.374-4.244c-2.126,0-3.798,0.515-5.017,1.546
		c-1.205,1.03-1.814,2.44-1.814,4.218c0,2.698,3.511,5.898,10.533,9.615c1.122,0.582,1.981,1.029,2.591,1.342
		c6.114,3.309,10.401,6.563,12.861,9.75c2.46,3.201,3.69,6.943,3.69,11.27c0,5.642-1.685,10.171-5.04,13.615
		c-3.355,3.445-7.81,5.168-13.362,5.168c-2.221,0-4.335-0.285-6.341-0.855c-2.007-0.569-4.216-1.531-6.64-2.889L318.915,124.846z"/>
	<path fill-rule="evenodd" clip-rule="evenodd" fill="#DE181E" d="M129.828,187.826v-2.262h6.402v-50.047h-6.402v-2.104h33.187
		v2.104h-6.366v50.047h6.366v2.262H129.828L129.828,187.826z M174.564,179.514c0,2.482,0.459,4.104,1.365,4.889
		c0.906,0.77,2.779,1.162,5.606,1.162v2.262h-16.177v-2.262c2.598,0,4.337-0.393,5.219-1.189c0.882-0.783,1.329-2.404,1.329-4.861
		v-43.996h-6.271v-2.104h26.978l7.261,22.82l7.321-22.82h27.11v2.104h-5.738v50.047h5.738v2.262h-32.027v-2.262h5.871v-46.451
		l-15.608,48.713h-2.899l-15.078-48.557V179.514L174.564,179.514z M260.39,177.645c0,3.307,0.388,5.725,1.147,7.229
		c0.773,1.502,1.982,2.26,3.637,2.26c1.703,0,2.948-0.758,3.723-2.26c0.783-1.504,1.17-3.922,1.17-7.229v-33.578
		c0-3.295-0.387-5.686-1.146-7.189c-0.773-1.49-2.018-2.234-3.746-2.234c-1.68,0-2.899,0.744-3.648,2.234
		c-0.761,1.504-1.136,3.895-1.136,7.189V177.645L260.39,177.645z M237.918,160.836c0-3.66,0.652-7.256,1.971-10.783
		c1.304-3.529,3.092-6.549,5.363-9.059c2.525-2.783,5.473-4.901,8.855-6.352c3.395-1.451,7.08-2.184,11.066-2.184
		c7.901,0,14.449,2.706,19.609,8.117c5.17,5.412,7.755,12.168,7.755,20.26c0,8.143-2.585,14.926-7.755,20.35
		c-5.16,5.424-11.708,8.131-19.609,8.131c-3.467,0-6.729-0.563-9.785-1.686c-3.057-1.125-5.775-2.758-8.154-4.902
		c-2.889-2.549-5.16-5.791-6.814-9.699C238.752,169.109,237.918,165.045,237.918,160.836L237.918,160.836z M304.85,179.592
		c0,2.482,0.447,4.104,1.341,4.889c0.894,0.771,2.766,1.162,5.593,1.162v2.184h-16.671v-2.184h0.531
		c2.598,0,4.324-0.391,5.206-1.162c0.87-0.785,1.306-2.406,1.306-4.889v-44.074h-7.043v-2.104h27.314l19.79,29.564v-21.33
		c0-2.51-0.447-4.157-1.329-4.941c-0.882-0.797-2.634-1.189-5.256-1.189h-0.423v-2.104h16.673v2.104h-0.423
		c-2.598,0-4.337,0.393-5.22,1.189c-0.881,0.784-1.329,2.432-1.329,4.941v46.178h-11.078l-28.982-43.459V179.592L304.85,179.592z
		 M403.492,133.414v18.795h-2.162c-1.316-5.895-3.335-10.156-6.029-12.77c-2.706-2.615-6.451-3.922-11.247-3.922h-2.899v23.436
		h0.217c2.924,0,5.172-0.875,6.729-2.641c1.559-1.764,2.514-4.482,2.864-8.154h2.09v23.813h-2.09
		c-0.375-3.672-1.342-6.391-2.9-8.154c-1.558-1.766-3.793-2.641-6.693-2.641h-0.217v24.389h3.927c4.445,0,8.058-1.516,10.872-4.561
		c2.804-3.033,4.931-7.725,6.367-14.051h2.199v20.873h-49.799v-2.262h5.484v-50.047h-5.484v-2.104H403.492L403.492,133.414z
		 M453.509,187.826h-34.335v-2.262h6.656v-50.047c-3.237,0.236-6.089,1.83-8.565,4.785c-2.477,2.967-4.276,6.926-5.412,11.906
		h-1.595v-18.795h52.167v18.795h-1.595c-1.136-4.98-2.936-8.939-5.412-11.906c-2.478-2.955-5.328-4.549-8.565-4.785v50.047h6.656
		V187.826L453.509,187.826z M507.729,187.826h-34.334v-2.262h6.656v-50.047c-3.238,0.236-6.089,1.83-8.565,4.785
		c-2.477,2.967-4.276,6.926-5.412,11.906h-1.596v-18.795h52.168v18.795h-1.596c-1.135-4.98-2.936-8.939-5.411-11.906
		c-2.478-2.955-5.328-4.549-8.566-4.785v50.047h6.656V187.826L507.729,187.826z M519.616,187.826v-2.262h6.404v-50.047h-6.404
		v-2.104h33.188v2.104h-6.366v50.047h6.366v2.262H519.616z"/>
	<path fill-rule="evenodd" clip-rule="evenodd" fill="#DE181E" d="M37.731,122.427c0,2.962,0.562,4.894,1.667,5.829
		c1.107,0.92,3.396,1.387,6.85,1.387v2.696H26.483v-2.696c3.174,0,5.3-0.467,6.377-1.418c1.077-0.936,1.624-2.867,1.624-5.798
		v-52.46h-7.661v-2.51h32.96l8.871,27.212L77.6,67.457h33.122v2.51h-7.011v59.676h7.011v2.696h-39.13v-2.696h7.174v-55.39
		l-19.071,58.086h-3.542L37.731,74.439V122.427z"/>
	<path fill-rule="evenodd" clip-rule="evenodd" fill="#DE181E" d="M61.824,192.723h-2.718c0.196-2.797,0.315-4.889,0.374-6.271
		s0.098-2.65,0.098-3.801c0-1.482-0.078-3.457-0.236-5.926c-0.156-2.486-0.334-5.318-0.57-8.494h3.29
		c3.663,6.684,8.351,11.934,14.104,15.77c5.751,3.818,11.681,5.727,17.807,5.727c3.959,0,6.972-0.625,9.061-1.859
		c2.069-1.234,3.112-3.045,3.112-5.416c0-3.309-4.904-6.797-14.714-10.469c-0.927-0.344-1.636-0.625-2.147-0.805
		c-11.582-4.445-19.48-8.643-23.716-12.594c-4.235-3.949-6.343-8.771-6.343-14.467c0-6.914,2.619-12.461,7.84-16.675
		c5.239-4.214,12.114-6.321,20.604-6.321c3.094,0,6.047,0.33,8.904,0.988c2.836,0.658,5.752,1.68,8.705,3.063l12.942-4.051h2.363
		c0,1.614-0.039,3.309-0.118,5.119c-0.039,0.479-0.059,0.773-0.059,0.906c0,2.93,0.098,5.728,0.295,8.428
		c0.197,2.683,0.453,5.465,0.809,8.361h-3.29c-3.96-6.337-8.47-11.226-13.513-14.666c-5.043-3.439-10.203-5.152-15.463-5.152
		c-3.507,0-6.264,0.626-8.273,1.877c-1.989,1.251-2.994,2.963-2.994,5.119c0,3.275,5.792,7.16,17.373,11.67
		c1.852,0.709,3.27,1.25,4.275,1.629c10.085,4.018,17.156,7.967,21.215,11.836c4.058,3.885,6.086,8.428,6.086,13.678
		c0,6.848-2.777,12.346-8.313,16.525c-5.535,4.182-12.883,6.271-22.041,6.271c-3.664,0-7.151-0.346-10.461-1.037
		c-3.309-0.691-6.953-1.859-10.951-3.506L61.824,192.723z"/>
</g>
</svg>
